<?xml version="1.0" encoding="UTF-8"?>
<svg id="Layer_1" xmlns="http://www.w3.org/2000/svg" version="1.1" viewBox="0 0 24 24">
  <!-- Generator: Adobe Illustrator 29.8.4, SVG Export Plug-In . SVG Version: 2.1.1 Build 6)  -->
  <path d="M9.43,20.73c-.03.22-.22.41-.44.44h-4.97c-.22-.02-.39-.18-.45-.39-.04-4.82,0-9.65-.02-14.48,0-.16.05-.3.17-.4,1.66-.94,3.34-1.85,5.02-2.77.14-.05.24-.04.38,0l9.62,4.08c.13.09.2.23.22.39,0,1.24,0,2.49,0,3.73,0,.53.05,1.13.01,1.66-.01.16-.07.29-.19.39-.96.49-1.96.9-2.93,1.37-.03.02-.08.04-.11.06-.01,0-.02,0-.02.03l3.45,1.59c.31.19.31.65,0,.85l-2.24,1.34.42,2.64c-.01.36-.36.6-.7.46l-7.24-3.37v2.39ZM17.96,7.95l-8.98-3.79h-.04s-3.77,2.08-3.77,2.08c.01.02.04.03.07.05,1.28.62,2.58,1.21,3.86,1.84l8.87,4.09v-4.26ZM8.42,20.17v-11.27l-3.85-1.83v13.1h3.85ZM9.43,9.36v1.92l2.06-.97-2.06-.95ZM17.28,12.98l-4.58-2.11-2.75,1.27,4.58,2.12,2.72-1.25.03-.03ZM9.43,13.02v4.21l6.79,3.16-.32-1.99c-.01-.2.07-.36.22-.47l1.72-1.02-8.41-3.89Z"/>
</svg>